<svg width="37" height="39" viewBox="0 0 37 39" fill="none" xmlns="http://www.w3.org/2000/svg">
<path d="M5.39587 7.3125H8.55573C9.26217 7.3125 9.6154 7.3125 9.87927 7.5058C10.1431 7.69911 10.2496 8.03589 10.4626 8.70946L11.5625 12.1875" stroke="#222222" stroke-linecap="round"/>
<path d="M26.9792 28.4375H12.4869C11.4878 28.4375 10.9882 28.4375 10.6992 28.1644C10.611 28.0811 10.5387 27.9823 10.4858 27.8731C10.3126 27.5151 10.4632 27.0388 10.7644 26.0862V26.0862C11.1068 25.0037 11.278 24.4624 11.6578 24.1053C11.7767 23.9935 11.9089 23.8967 12.0514 23.817C12.5064 23.5625 13.0741 23.5625 14.2094 23.5625H22.3542" stroke="#222222" stroke-linecap="round" stroke-linejoin="round"/>
<path d="M23.056 23.5625H15.7957C14.4917 23.5625 13.8397 23.5625 13.3334 23.2218C12.8271 22.8811 12.5815 22.2771 12.0903 21.0691L10.1583 16.3175C9.39807 14.4476 9.01793 13.5127 9.46378 12.8501C9.90964 12.1875 10.9189 12.1875 12.9374 12.1875H26.5653C28.8133 12.1875 29.9374 12.1875 30.3736 12.9201C30.8098 13.6528 30.274 14.641 29.2026 16.6173L26.5725 21.4689C26.0193 22.4893 25.7427 22.9995 25.2699 23.281C24.797 23.5625 24.2167 23.5625 23.056 23.5625Z" stroke="#222222" stroke-linecap="round"/>
<ellipse cx="26.2083" cy="32.5" rx="1.54167" ry="1.625" fill="#222222"/>
<ellipse cx="13.875" cy="32.5" rx="1.54167" ry="1.625" fill="#222222"/>
</svg>
